<?xml version="1.0"?>
<svg xmlns="http://www.w3.org/2000/svg" xmlns:xlink="http://www.w3.org/1999/xlink" xmlns:svgjs="http://svgjs.com/svgjs" version="1.1" width="512" height="512" x="0" y="0" viewBox="0 0 512 512" style="enable-background:new 0 0 512 512" xml:space="preserve" class=""><g><g xmlns="http://www.w3.org/2000/svg"><g><g><circle cx="220.54" cy="256" fill="#c119b1bd" r="220.54" data-original="#97d729" style="" class=""/></g><g><path d="m32.289 256c0-116.176 90.299-211.651 204.395-219.946-5.332-.388-10.715-.593-16.144-.593-121.606-.001-220.54 98.933-220.54 220.539s98.934 220.54 220.54 220.54c5.43 0 10.812-.206 16.144-.594-114.097-8.295-204.395-103.77-204.395-219.946z" fill="#bf38b2bd" data-original="#8bc727" style="" class=""/></g><g><circle cx="220.54" cy="256" fill="#ffffff" r="168.279" data-original="#ffffff" style="" class=""/></g><g><path d="m84.271 256c0-87.391 66.965-159.426 152.274-167.513-5.27-.5-10.607-.766-16.005-.766-92.789 0-168.279 75.489-168.279 168.279s75.49 168.279 168.279 168.279c5.398 0 10.735-.266 16.005-.766-85.31-8.087-152.274-80.122-152.274-167.513z" fill="#fff3de" data-original="#fff3de" style="" class=""/></g><g><circle cx="220.54" cy="256" fill="#5a98d1" r="116.019" data-original="#0593fc" style="" class=""/></g><g><path d="m136.499 256c0-58.548 43.596-107.098 100.03-114.912-5.229-.724-10.564-1.107-15.989-1.107-63.973 0-116.019 52.046-116.019 116.019s52.045 116.019 116.019 116.019c5.425 0 10.76-.383 15.989-1.107-56.434-7.814-100.03-56.364-100.03-114.912z" fill="#3d85c6" data-original="#0182fc" style="" class=""/></g><g><circle cx="220.54" cy="256" fill="#ffffff" r="63.758" data-original="#ffffff" style="" class=""/></g><g><path d="m186.174 256c0-30.152 20.937-55.398 49.062-62.036-4.72-1.114-9.636-1.722-14.696-1.722-35.213 0-63.758 28.545-63.758 63.758s28.545 63.758 63.758 63.758c5.06 0 9.976-.607 14.696-1.722-28.124-6.638-49.062-31.884-49.062-62.036z" fill="#fff3de" data-original="#fff3de" style="" class=""/></g><g><path d="m220.539 278.5c-12.405 0-22.499-10.094-22.499-22.5s10.094-22.5 22.499-22.5c12.407 0 22.501 10.094 22.501 22.5s-10.094 22.5-22.501 22.5z" fill="#fe646f" data-original="#fe646f" style="" class=""/></g></g><g fill="#b3dafe"><path d="m491.309 249.5 20.117-27.809c1.435-1.984.018-4.758-2.431-4.758h-64.452c-.841 0-1.643.353-2.211.972l-28.97 31.595z" fill="#b3dafe" data-original="#b3dafe" style="" class=""/><path d="m491.309 262.5h-77.948l28.97 31.595c.568.62 1.37.972 2.211.972h64.452c2.448 0 3.866-2.775 2.431-4.758z" fill="#b3dafe" data-original="#b3dafe" style="" class=""/></g><g fill="#8ac9fe"><path d="m414.278 248.5h29.583l28.945-31.567h-28.264c-.841 0-1.643.353-2.211.972z" fill="#8ac9fe" data-original="#8ac9fe" style="" class=""/><path d="m414.278 263.5 28.053 30.595c.568.62 1.37.972 2.211.972h28.264l-28.945-31.567z" fill="#8ac9fe" data-original="#8ac9fe" style="" class=""/></g><g><path d="m503 263.5h-282.46c-4.143 0-7.5-3.358-7.5-7.5s3.357-7.5 7.5-7.5h282.46c4.143 0 7.5 3.358 7.5 7.5s-3.357 7.5-7.5 7.5z" fill="#d88a55" data-original="#d88a55" style="" class=""/></g><g><circle cx="317.577" cy="390.844" fill="#fe646f" r="21.424" data-original="#fe646f" style="" class=""/></g><g><path d="m317.201 390.844c0-8.004 4.397-14.971 10.9-18.649-3.11-1.759-6.696-2.775-10.524-2.775-11.832 0-21.424 9.592-21.424 21.424s9.592 21.424 21.424 21.424c3.828 0 7.413-1.016 10.524-2.775-6.503-3.678-10.9-10.645-10.9-18.649z" fill="#fd4755" data-original="#fd4755" style="" class=""/></g><g><circle cx="366.726" cy="90.91" fill="#fe646f" r="21.424" data-original="#fe646f" style="" class=""/></g><g><path d="m366.649 90.91c0-7.941 4.331-14.857 10.75-18.558-3.145-1.813-6.783-2.866-10.674-2.866-11.832 0-21.424 9.592-21.424 21.424s9.592 21.424 21.424 21.424c3.891 0 7.529-1.053 10.674-2.866-6.418-3.7-10.75-10.616-10.75-18.558z" fill="#fd4755" data-original="#fd4755" style="" class=""/></g><g><circle cx="98.298" cy="138.799" fill="#fe646f" r="21.424" data-original="#fe646f" style="" class=""/></g><g><path d="m98.382 138.799c0-7.908 4.296-14.797 10.67-18.509-3.163-1.842-6.83-2.915-10.754-2.915-11.832 0-21.424 9.592-21.424 21.424s9.592 21.424 21.424 21.424c3.925 0 7.591-1.073 10.754-2.915-6.374-3.712-10.67-10.602-10.67-18.509z" fill="#fd4755" data-original="#fd4755" style="" class=""/></g></g></g></svg>
