<?xml version="1.0"?>
<svg xmlns="http://www.w3.org/2000/svg" xmlns:xlink="http://www.w3.org/1999/xlink" xmlns:svgjs="http://svgjs.com/svgjs" version="1.1" width="512" height="512" x="0" y="0" viewBox="0 0 64 64" style="enable-background:new 0 0 512 512" xml:space="preserve" class=""><g><g xmlns="http://www.w3.org/2000/svg" fill="#f0bc5e"><path d="m23 23c-3.309 0-6-2.691-6-6s2.691-6 6-6 6 2.691 6 6-2.691 6-6 6z" fill="#000000" data-original="#f0bc5e" style="" class=""/><path d="m13.958 14.221-.221-.221h-11.151l-2 2 7.984 7.984c1.144-3.577 2.98-6.887 5.388-9.763z" fill="#000000" data-original="#f0bc5e" style="" class=""/><path d="m16.016 31.43 7.984 7.984 2-2v-11.152l-.221-.221c-2.875 2.408-6.186 4.245-9.763 5.389z" fill="#000000" data-original="#f0bc5e" style="" class=""/></g><path xmlns="http://www.w3.org/2000/svg" d="m8.917 35.331 3.938-3.062.839.839.764-.191c5.269-1.317 10.083-4.043 13.924-7.884l1.841-1.84c5.66-5.662 8.777-13.188 8.777-21.193v-1h-1c-8.005 0-15.531 3.118-21.192 8.778l-1.841 1.84c-3.84 3.84-6.566 8.655-7.884 13.924l-.19.765.839.838-3.062 3.937zm-1.586-4.414 5.763-7.409 3.398 3.398-7.409 5.762zm28.64-21.36-5.529-5.529c2.11-.589 4.302-.931 6.54-1.011-.079 2.239-.422 4.43-1.011 6.54zm-19.59 3.476 1.841-1.84c2.907-2.906 6.342-5.089 10.087-6.47l6.969 6.969c-1.381 3.745-3.564 7.18-6.47 10.087l-1.841 1.84c-3.375 3.375-7.559 5.815-12.14 7.116l4.681-3.641-6.602-6.602-3.641 4.682c1.301-4.582 3.742-8.767 7.116-12.141z" fill="#000000" data-original="#000000" style="" class=""/><path xmlns="http://www.w3.org/2000/svg" d="m46.405 38.922h2.001v2.184h-2.001z" transform="matrix(.928 -.372 .372 .928 -11.481 20.5)" fill="#000000" data-original="#000000" style="" class=""/><path xmlns="http://www.w3.org/2000/svg" d="m49.551 42.685-1.858.742 4.454 11.135 5.146 5.145 1.414-1.414-4.854-4.855z" fill="#000000" data-original="#000000" style="" class=""/><path xmlns="http://www.w3.org/2000/svg" d="m51.677 35h-9.091l-10.23 10.23-2.821-4.23h-8.949l-19.586 19.586v2.414h62v-7.414l-5.147-5.147zm-12.677 26h-35.586l18-18h7.051l5.703 8.555 4.832 4.859zm22 0h-20v-5.414l-5.223-5.223-2.291-3.436 9.928-9.927h6.909l5.824 14.562 4.853 4.852z" fill="#000000" data-original="#000000" style="" class=""/><path xmlns="http://www.w3.org/2000/svg" d="m9.808 57.192h2v2h-2z" transform="matrix(.707 -.707 .707 .707 -37.983 24.686)" fill="#000000" data-original="#000000" style="" class=""/><path xmlns="http://www.w3.org/2000/svg" d="m18.293 48.707h2v2h-2z" transform="matrix(.707 -.707 .707 .707 -29.497 28.201)" fill="#000000" data-original="#000000" style="" class=""/><path xmlns="http://www.w3.org/2000/svg" d="m15.465 51.535h2v2h-2z" transform="matrix(.707 -.707 .707 .707 -32.325 27.03)" fill="#000000" data-original="#000000" style="" class=""/><path xmlns="http://www.w3.org/2000/svg" d="m12.636 54.364h2v2h-2z" transform="matrix(.707 -.707 .707 .707 -35.155 25.858)" fill="#000000" data-original="#000000" style="" class=""/><path xmlns="http://www.w3.org/2000/svg" d="m25.489 44.852h2v1.763h-2z" transform="matrix(.832 -.555 .555 .832 -20.92 22.374)" fill="#000000" data-original="#000000" style="" class=""/><path xmlns="http://www.w3.org/2000/svg" d="m28.714 47.268-1.664 1.109 4.118 6.178 1.145 1.173 1.415-1.415-.951-.95z" fill="#000000" data-original="#000000" style="" class=""/><path xmlns="http://www.w3.org/2000/svg" d="m49 33h2v-24h-1.796l4.796-5.481 4.796 5.481h-1.796v32h2v-30h4.204l-9.204-10.519-9.204 10.519h4.204z" fill="#000000" data-original="#000000" style="" class=""/><path xmlns="http://www.w3.org/2000/svg" d="m57 43h2v2h-2z" fill="#000000" data-original="#000000" style="" class=""/><path xmlns="http://www.w3.org/2000/svg" d="m44 27h4.204l-9.204-10.519-9.204 10.519h4.204v12h2v-14h-1.796l4.796-5.481 4.796 5.481h-1.796v4h2z" fill="#000000" data-original="#000000" style="" class=""/><path xmlns="http://www.w3.org/2000/svg" d="m42 31h2v2h-2z" fill="#000000" data-original="#000000" style="" class=""/></g></svg>
