<?xml version="1.0"?>
<svg xmlns="http://www.w3.org/2000/svg" xmlns:xlink="http://www.w3.org/1999/xlink" xmlns:svgjs="http://svgjs.com/svgjs" version="1.1" width="512" height="512" x="0" y="0" viewBox="0 0 511.672 511.672" style="enable-background:new 0 0 512 512" xml:space="preserve" class=""><g><g xmlns="http://www.w3.org/2000/svg"><g><g><path d="m255.836 109.333c-108.87 0-203.997 58.622-255.695 145.986-.188.318-.188.716 0 1.034 51.698 87.364 146.825 145.986 255.695 145.986s203.997-58.622 255.695-145.986c.188-.318.188-.716 0-1.034-51.698-87.364-146.825-145.986-255.695-145.986z" fill="#e5e1e5" data-original="#e5e1e5" style="" class=""/></g><path d="m142.954 342.653c-102.118-58.817-103.118-107.817 26.37-180.213 37.312-25.993 80.869-43.638 127.977-50.225-13.55-1.895-27.391-2.882-41.465-2.882-108.87 0-203.997 58.622-255.695 145.986-.188.318-.188.716 0 1.034 51.698 87.364 146.825 145.986 255.695 145.986 14.073 0 27.915-.987 41.465-2.882-47.108-6.587-90.665-24.233-127.977-50.225-8.978-1.909-17.775-4.107-26.37-6.579z" fill="#d7d0d6" data-original="#d7d0d6" style="" class=""/><g><path d="m255.836 153.485c-108.695 0-203.692 40.824-255.446 101.697-.32.376-.32.932 0 1.308 51.754 60.873 146.751 101.697 255.446 101.697s203.692-40.824 255.446-101.697c.32-.376.32-.932 0-1.308-51.754-60.873-146.751-101.697-255.446-101.697z" fill="#fff3de" data-original="#fff3de" style="" class=""/></g><g><path d="m207.441 346.041c-60.015-15.04-111.08-43.197-146.131-79.532-5.755-5.966-5.755-15.381 0-21.347 35.051-36.334 86.116-64.492 146.131-79.532 14.403-7.743 30.871-12.141 48.368-12.146-108.684.008-203.67 40.83-255.419 101.698-.32.376-.32.932 0 1.308 51.75 60.868 146.735 101.69 255.419 101.697-17.497-.004-33.965-4.403-48.368-12.146z" fill="#ffe5c2" data-original="#ffe5c2" style="" class=""/></g><g><circle cx="255.836" cy="255.836" fill="#8ac9fe" r="102.352" data-original="#8ac9fe" style="" class=""/></g><g><g><g fill="#0593fc"><path d="m248.336 189.392v-35.633c-22.624 1.639-43.208 10.628-59.376 24.595l25.221 25.221c9.594-7.663 21.328-12.744 34.155-14.183z" fill="#0593fc" data-original="#0593fc" style="" class=""/><path d="m297.49 203.575 25.221-25.221c-16.167-13.967-36.752-22.956-59.375-24.594v35.633c12.827 1.438 24.561 6.519 34.154 14.182z" fill="#0593fc" data-original="#0593fc" style="" class=""/><path d="m322.279 248.336h35.633c-1.639-22.624-10.628-43.208-24.595-59.376l-25.221 25.221c7.664 9.594 12.745 21.328 14.183 34.155z" fill="#0593fc" data-original="#0593fc" style="" class=""/><path d="m203.575 214.181-25.221-25.221c-13.967 16.167-22.956 36.752-24.595 59.376h35.633c1.439-12.827 6.52-24.561 14.183-34.155z" fill="#0593fc" data-original="#0593fc" style="" class=""/><path d="m308.097 297.49 25.221 25.221c13.967-16.167 22.956-36.752 24.595-59.376h-35.633c-1.439 12.827-6.52 24.561-14.183 34.155z" fill="#0593fc" data-original="#0593fc" style="" class=""/><path d="m189.392 263.336h-35.633c1.639 22.624 10.628 43.208 24.595 59.376l25.221-25.221c-7.663-9.594-12.744-21.328-14.183-34.155z" fill="#0593fc" data-original="#0593fc" style="" class=""/><path d="m263.336 322.28v35.633c22.623-1.639 43.208-10.628 59.375-24.594l-25.221-25.221c-9.593 7.662-21.327 12.743-34.154 14.182z" fill="#0593fc" data-original="#0593fc" style="" class=""/><path d="m214.181 308.097-25.221 25.221c16.167 13.967 36.752 22.956 59.376 24.595v-35.633c-12.827-1.439-24.561-6.52-34.155-14.183z" fill="#0593fc" data-original="#0593fc" style="" class=""/></g><g><circle cx="255.836" cy="255.836" fill="#ffffff" r="67.875" data-original="#ffffff" style="" class=""/></g><g><path d="m209.478 255.836c0-33.824 24.744-61.861 57.117-67.018-3.505-.558-7.096-.857-10.759-.857-37.486 0-67.875 30.389-67.875 67.875s30.389 67.875 67.875 67.875c3.662 0 7.254-.299 10.759-.857-32.373-5.157-57.117-33.194-57.117-67.018z" fill="#fff3de" data-original="#fff3de" style="" class=""/></g><g><circle cx="255.836" cy="255.836" fill="#0593fc" r="33.234" data-original="#0593fc" style="" class=""/></g><g><path d="m254.806 255.836c0-12.512 6.917-23.403 17.132-29.073-4.771-2.648-10.259-4.161-16.102-4.161-18.355 0-33.234 14.88-33.234 33.234s14.88 33.234 33.234 33.234c5.843 0 11.331-1.513 16.102-4.161-10.215-5.67-17.132-16.561-17.132-29.073z" fill="#0182fc" data-original="#0182fc" style=""/></g></g></g></g><g><g><g><path d="m427.876 215.372c-4.143 0-7.5-3.358-7.5-7.5v-116.576h-116.576c-4.143 0-7.5-3.358-7.5-7.5s3.357-7.5 7.5-7.5h124.076c4.143 0 7.5 3.358 7.5 7.5v124.076c0 4.142-3.357 7.5-7.5 7.5z" fill="#8ac9fe" data-original="#8ac9fe" style="" class=""/></g><g><path d="m83.796 215.372c-4.142 0-7.5-3.358-7.5-7.5v-124.076c0-4.142 3.358-7.5 7.5-7.5h124.076c4.142 0 7.5 3.358 7.5 7.5s-3.358 7.5-7.5 7.5h-116.576v116.576c0 4.142-3.358 7.5-7.5 7.5z" fill="#8ac9fe" data-original="#8ac9fe" style="" class=""/></g><g><path d="m207.872 435.376h-124.076c-4.142 0-7.5-3.358-7.5-7.5v-124.076c0-4.142 3.358-7.5 7.5-7.5s7.5 3.358 7.5 7.5v116.576h116.576c4.142 0 7.5 3.358 7.5 7.5s-3.358 7.5-7.5 7.5z" fill="#8ac9fe" data-original="#8ac9fe" style="" class=""/></g><g><path d="m427.876 435.376h-124.076c-4.143 0-7.5-3.358-7.5-7.5s3.357-7.5 7.5-7.5h116.576v-116.576c0-4.142 3.357-7.5 7.5-7.5s7.5 3.358 7.5 7.5v124.076c0 4.142-3.357 7.5-7.5 7.5z" fill="#8ac9fe" data-original="#8ac9fe" style="" class=""/></g></g></g><g><g><path d="m260.297 71.865 25.354-43.915c1.983-3.434-.496-7.726-4.461-7.726h-50.708c-3.965 0-6.443 4.292-4.461 7.726l25.354 43.915c1.983 3.434 6.939 3.434 8.922 0z" fill="#fe646f" data-original="#fe646f" style="" class=""/></g><g><path d="m247.262 27.95c-1.983-3.434.496-7.726 4.461-7.726h-21.241c-3.965 0-6.443 4.292-4.461 7.726l25.354 43.915c1.983 3.434 6.939 3.434 8.922 0l6.16-10.669z" fill="#fd4755" data-original="#fd4755" style="" class=""/></g><g><path d="m251.375 439.807-25.354 43.915c-1.983 3.434.496 7.726 4.461 7.726h50.708c3.965 0 6.443-4.292 4.461-7.726l-25.354-43.915c-1.983-3.434-6.939-3.434-8.922 0z" fill="#fe646f" data-original="#fe646f" style="" class=""/></g><g><path d="m247.262 483.722 19.194-33.246-6.16-10.669c-1.983-3.434-6.939-3.434-8.922 0l-25.354 43.915c-1.983 3.434.496 7.726 4.461 7.726h21.241c-3.964 0-6.443-4.292-4.46-7.726z" fill="#fd4755" data-original="#fd4755" style="" class=""/></g></g></g></g></svg>
