<svg width="609" height="58" viewBox="0 0 609 58" fill="none" xmlns="http://www.w3.org/2000/svg">
<path d="M25.9532 57.6358C20.8823 57.6358 16.4112 56.4089 12.5399 53.9553C8.72306 51.5016 5.77867 48.1755 3.70668 43.977C1.6347 39.724 0.598708 35.0075 0.598708 29.8276C0.598708 24.484 1.71649 19.5495 3.95205 15.0238C6.24213 10.4982 9.32285 6.92671 13.1942 4.30947C17.12 1.69223 21.3731 0.383613 25.9532 0.383613C30.3153 0.383613 34.1321 1.01066 37.4037 2.26476C40.7297 3.46432 43.1834 5.01831 44.7647 6.92672C45.6916 8.07176 46.2641 9.59848 46.4822 11.5069C46.7003 13.3608 46.8094 15.9235 46.8094 19.195H45.1736C44.1376 13.906 42.2292 10.0074 39.4484 7.49924C36.6676 4.93652 32.9871 3.65516 28.4069 3.65516C22.5181 3.65516 17.7744 5.72715 14.1756 9.87111C10.5769 14.0151 8.77759 20.6672 8.77759 29.8276C8.77759 34.1351 9.45916 38.1428 10.8223 41.8505C12.24 45.5583 14.421 48.5845 17.3654 50.9291C20.3098 53.2192 23.9903 54.3642 28.4069 54.3642C32.3873 54.3642 35.8497 53.41 38.7941 51.5016C41.793 49.5932 44.4648 46.7306 46.8094 42.9138L48.4452 44.1406C45.937 49.048 42.829 52.5376 39.1212 54.6096C35.468 56.627 31.0787 57.6358 25.9532 57.6358ZM82.9632 57.6358C77.8923 57.6358 73.4212 56.3817 69.5499 53.8735C65.7331 51.3653 62.7887 47.9302 60.7167 43.5681C58.6447 39.206 57.6087 34.3532 57.6087 29.0097C57.6087 23.6662 58.6447 18.8134 60.7167 14.4513C62.7887 10.0892 65.7331 6.65409 69.5499 4.1459C73.4212 1.63771 77.8923 0.383613 82.9632 0.383613C88.0341 0.383613 92.478 1.63771 96.2948 4.1459C100.166 6.65409 103.138 10.0892 105.21 14.4513C107.282 18.8134 108.318 23.6662 108.318 29.0097C108.318 34.3532 107.282 39.206 105.21 43.5681C103.138 47.9302 100.166 51.3653 96.2948 53.8735C92.478 56.3817 88.0341 57.6358 82.9632 57.6358ZM82.9632 54.3642C86.5074 54.3642 89.5609 53.3282 92.1236 51.2562C94.7408 49.1843 96.731 46.2671 98.0942 42.5048C99.4573 38.688 100.139 34.1897 100.139 29.0097C100.139 23.8297 99.4573 19.3586 98.0942 15.5963C96.731 11.7795 94.7408 8.83512 92.1236 6.76314C89.5609 4.69115 86.5074 3.65516 82.9632 3.65516C79.419 3.65516 76.3383 4.69115 73.7211 6.76314C71.1584 8.83512 69.1954 11.7795 67.8323 15.5963C66.4692 19.3586 65.7876 23.8297 65.7876 29.0097C65.7876 34.1897 66.4692 38.688 67.8323 42.5048C69.1954 46.2671 71.1584 49.1843 73.7211 51.2562C76.3383 53.3282 79.419 54.3642 82.9632 54.3642ZM122.637 11.834C122.637 9.05323 122.256 7.00851 121.492 5.69989C120.729 4.33674 119.202 3.65516 116.912 3.65516H115.276V2.01939H122.637C124.655 2.01939 126.154 2.29202 127.136 2.83728C128.172 3.32801 128.908 4.25495 129.344 5.61809C129.78 6.98124 129.998 9.05323 129.998 11.834V52.7284H159.033V56H122.637V11.834ZM187.471 57.6358C182.4 57.6358 177.929 56.3817 174.057 53.8735C170.241 51.3653 167.296 47.9302 165.224 43.5681C163.152 39.206 162.116 34.3532 162.116 29.0097C162.116 23.6662 163.152 18.8134 165.224 14.4513C167.296 10.0892 170.241 6.65409 174.057 4.1459C177.929 1.63771 182.4 0.383613 187.471 0.383613C192.542 0.383613 196.986 1.63771 200.802 4.1459C204.674 6.65409 207.645 10.0892 209.717 14.4513C211.789 18.8134 212.825 23.6662 212.825 29.0097C212.825 34.3532 211.789 39.206 209.717 43.5681C207.645 47.9302 204.674 51.3653 200.802 53.8735C196.986 56.3817 192.542 57.6358 187.471 57.6358ZM187.471 54.3642C191.015 54.3642 194.068 53.3282 196.631 51.2562C199.248 49.1843 201.239 46.2671 202.602 42.5048C203.965 38.688 204.646 34.1897 204.646 29.0097C204.646 23.8297 203.965 19.3586 202.602 15.5963C201.239 11.7795 199.248 8.83512 196.631 6.76314C194.068 4.69115 191.015 3.65516 187.471 3.65516C183.927 3.65516 180.846 4.69115 178.229 6.76314C175.666 8.83512 173.703 11.7795 172.34 15.5963C170.977 19.3586 170.295 23.8297 170.295 29.0097C170.295 34.1897 170.977 38.688 172.34 42.5048C173.703 46.2671 175.666 49.1843 178.229 51.2562C180.846 53.3282 183.927 54.3642 187.471 54.3642ZM263.132 56.8179C260.242 56.8179 257.706 55.9727 255.525 54.2824C253.399 52.5376 251.027 49.4296 248.41 44.9585L240.231 31.0544H234.506V56H227.145V11.834C227.145 9.05323 226.763 7.00851 226 5.69989C225.236 4.33674 223.71 3.65516 221.42 3.65516H219.784V2.01939H241.049C246.229 2.01939 250.918 3.05538 255.117 5.12736C259.37 7.14482 261.496 11.0162 261.496 16.7414C261.496 23.9933 257.134 28.628 248.41 30.6455L256.998 44.9585C259.015 48.3391 260.814 50.711 262.396 52.0741C264.031 53.3828 265.913 54.1461 268.039 54.3642V56C267.548 56.2181 266.84 56.4089 265.913 56.5725C265.04 56.7361 264.113 56.8179 263.132 56.8179ZM240.64 28.1918C242.33 28.1918 244.157 27.7829 246.12 26.965C248.137 26.1471 249.828 24.8657 251.191 23.1209C252.608 21.3761 253.317 19.2496 253.317 16.7414C253.317 14.0696 252.608 11.8613 251.191 10.1165C249.828 8.31712 248.137 7.0085 246.12 6.19062C244.157 5.3182 242.33 4.882 240.64 4.882C238.731 4.882 236.687 5.15463 234.506 5.69989V27.3739C236.687 27.9192 238.731 28.1918 240.64 28.1918ZM278.24 11.834C278.24 9.05323 277.859 7.00851 277.095 5.69989C276.332 4.33674 274.805 3.65516 272.515 3.65516H270.879V2.01939H303.513C308.148 2.01939 310.465 4.20042 310.465 8.56249V14.6967H308.829C308.829 8.42618 305.422 5.29094 298.606 5.29094H285.601V26.965H304.086V30.2365H285.601V56H278.24V11.834ZM344.108 56.8179C338.874 56.8179 334.73 55.9455 331.677 54.2006C328.623 52.4013 326.442 49.7568 325.133 46.2671C323.879 42.7775 323.252 38.2518 323.252 32.6902V11.834C323.252 9.05323 322.871 7.00851 322.107 5.69989C321.344 4.33674 319.817 3.65516 317.527 3.65516H315.891V2.01939H323.252C325.27 2.01939 326.769 2.29202 327.751 2.83728C328.787 3.32801 329.523 4.25495 329.959 5.61809C330.395 6.98124 330.613 9.05323 330.613 11.834V35.1439C330.613 41.1962 331.731 45.7764 333.967 48.8844C336.202 51.9923 339.91 53.5463 345.09 53.5463C349.234 53.5463 352.505 52.8102 354.905 51.338C357.358 49.8658 359.103 47.6303 360.139 44.6314C361.175 41.6324 361.693 37.652 361.693 32.6902V2.01939H364.965V32.6902C364.965 38.3609 364.365 42.9411 363.165 46.4307C361.966 49.8658 359.839 52.4558 356.786 54.2006C353.787 55.9455 349.561 56.8179 344.108 56.8179ZM382.428 11.834C382.428 9.05323 382.047 7.00851 381.283 5.69989C380.52 4.33674 378.993 3.65516 376.703 3.65516H375.067V2.01939H382.428C384.446 2.01939 385.945 2.29202 386.927 2.83728C387.963 3.32801 388.699 4.25495 389.135 5.61809C389.571 6.98124 389.789 9.05323 389.789 11.834V52.7284H418.824V56H382.428V11.834ZM453.39 11.834C453.39 9.05323 453.008 7.00851 452.245 5.69989C451.481 4.33674 449.955 3.65516 447.665 3.65516H446.029V2.01939H453.39C455.407 2.01939 456.907 2.29202 457.888 2.83728C458.924 3.32801 459.66 4.25495 460.097 5.61809C460.533 6.98124 460.751 9.05323 460.751 11.834V52.7284H489.786V56H453.39V11.834ZM506.303 56C504.285 56 502.759 55.7546 501.723 55.2639C500.741 54.7186 500.032 53.7644 499.596 52.4013C499.16 51.0381 498.942 48.9662 498.942 46.1853V2.01939H506.303V46.1853C506.303 48.9662 506.684 51.0381 507.448 52.4013C508.211 53.7099 509.738 54.3642 512.028 54.3642H513.664V56H506.303ZM526.108 11.834C526.108 9.05323 525.727 7.00851 524.963 5.69989C524.2 4.33674 522.673 3.65516 520.383 3.65516H518.747V2.01939H551.381C556.016 2.01939 558.333 4.20042 558.333 8.56249V14.6967H556.697C556.697 8.42618 553.29 5.29094 546.474 5.29094H533.469V26.965H551.954V30.2365H533.469V56H526.108V11.834ZM571.693 11.834C571.693 9.05323 571.311 7.00851 570.548 5.69989C569.784 4.33674 568.258 3.65516 565.968 3.65516H564.332V2.01939H599.174C603.809 2.01939 606.126 4.20042 606.126 8.56249V14.6967H604.49C604.49 8.42618 601.082 5.29094 594.267 5.29094H579.054V26.556H601.137V29.8276H579.054V52.7284H593.367C597.129 52.7284 600.074 52.0469 602.2 50.6837C604.327 49.3206 606.017 47.0032 607.271 43.7317L608.907 44.1406L606.044 51.9106C605.063 54.6369 603.018 56 599.91 56H571.693V11.834Z" fill="#BF38B2"/>
</svg>
